<svg width="377" height="229" viewBox="0 0 377 229" fill="none" xmlns="http://www.w3.org/2000/svg">
<path d="M0.87959 226L33.6546 173.5H61.1796L93.8796 226H68.9046L64.4046 217.825H30.5796L25.8546 226H0.87959ZM40.5546 200.425L38.0046 204.925H57.2796L54.8046 200.425L48.5796 187.675H47.0796L40.5546 200.425ZM135.506 227.2C104.506 227.2 89.0063 217.225 89.0063 197.275V173.5H112.256V196.525C112.256 205.475 120.006 209.95 135.506 209.95C151.006 209.95 158.756 205.475 158.756 196.525V173.5H182.006V197.275C182.006 217.225 166.506 227.2 135.506 227.2ZM221.387 226V190.9H186.512V173.5H279.512V190.9H244.637V226H221.387ZM327.221 227.2C317.721 227.2 309.471 226.125 302.471 223.975C295.521 221.775 290.146 218.65 286.346 214.6C282.596 210.55 280.721 205.75 280.721 200.2V199.3C280.721 193.7 282.596 188.9 286.346 184.9C290.146 180.85 295.521 177.75 302.471 175.6C309.471 173.4 317.721 172.3 327.221 172.3C336.771 172.3 345.021 173.4 351.971 175.6C358.921 177.75 364.271 180.85 368.021 184.9C371.821 188.9 373.721 193.7 373.721 199.3V200.2C373.721 205.75 371.821 210.55 368.021 214.6C364.271 218.65 358.921 221.775 351.971 223.975C345.021 226.125 336.771 227.2 327.221 227.2ZM327.221 209.95C334.071 209.95 339.471 209.1 343.421 207.4C347.421 205.65 349.421 203.25 349.421 200.2V199.3C349.421 196.25 347.421 193.875 343.421 192.175C339.471 190.425 334.071 189.55 327.221 189.55C320.421 189.55 315.021 190.425 311.021 192.175C307.021 193.875 305.021 196.25 305.021 199.3V200.2C305.021 203.25 307.021 205.65 311.021 207.4C315.021 209.1 320.421 209.95 327.221 209.95Z" fill="white"/>
<path d="M186.483 55V2.5H221.208L232.983 25.225L244.758 2.5H279.483V55H256.983V22.75L256.908 22.975L240.258 55H225.708L209.058 22.975L208.983 22.75V55H186.483ZM186.517 112L219.292 59.5H246.817L279.517 112H254.542L250.042 103.825H216.217L211.492 112H186.517ZM226.192 86.425L223.642 90.925H242.917L240.442 86.425L234.217 73.675H232.717L226.192 86.425ZM186.517 169L219.292 116.5H246.817L279.517 169H254.542L250.042 160.825H216.217L211.492 169H186.517ZM226.192 143.425L223.642 147.925H242.917L240.442 143.425L234.217 130.675H232.717L226.192 143.425Z" fill="white"/>
</svg>
